<svg width="76" height="25" viewBox="0 0 76 25" fill="none" xmlns="http://www.w3.org/2000/svg">
<path d="M11.0568 17V8.27273H16.2898V9.21023H12.1136V12.1591H15.8977V13.0966H12.1136V17H11.0568ZM20.2273 17.1364C19.5966 17.1364 19.0526 16.9972 18.5952 16.7188C18.1406 16.4375 17.7898 16.0455 17.5426 15.5426C17.2983 15.0369 17.1761 14.4489 17.1761 13.7784C17.1761 13.108 17.2983 12.517 17.5426 12.0057C17.7898 11.4915 18.1335 11.0909 18.5739 10.804C19.017 10.5142 19.5341 10.3693 20.125 10.3693C20.4659 10.3693 20.8026 10.4261 21.1349 10.5398C21.4673 10.6534 21.7699 10.8381 22.0426 11.0938C22.3153 11.3466 22.5327 11.6818 22.6946 12.0994C22.8565 12.517 22.9375 13.0312 22.9375 13.642V14.0682H17.892V13.1989H21.9148C21.9148 12.8295 21.8409 12.5 21.6932 12.2102C21.5483 11.9205 21.3409 11.6918 21.071 11.5241C20.804 11.3565 20.4886 11.2727 20.125 11.2727C19.7244 11.2727 19.3778 11.3722 19.0852 11.571C18.7955 11.767 18.5724 12.0227 18.4162 12.3381C18.2599 12.6534 18.1818 12.9915 18.1818 13.3523V13.9318C18.1818 14.4261 18.267 14.8452 18.4375 15.1889C18.6108 15.5298 18.8509 15.7898 19.1577 15.9688C19.4645 16.1449 19.821 16.233 20.2273 16.233C20.4915 16.233 20.7301 16.196 20.9432 16.1222C21.1591 16.0455 21.3452 15.9318 21.5014 15.7812C21.6577 15.6278 21.7784 15.4375 21.8636 15.2102L22.8352 15.483C22.733 15.8125 22.5611 16.1023 22.3196 16.3523C22.0781 16.5994 21.7798 16.7926 21.4247 16.9318C21.0696 17.0682 20.6705 17.1364 20.2273 17.1364ZM27.2116 17.1364C26.581 17.1364 26.0369 16.9972 25.5795 16.7188C25.125 16.4375 24.7741 16.0455 24.527 15.5426C24.2827 15.0369 24.1605 14.4489 24.1605 13.7784C24.1605 13.108 24.2827 12.517 24.527 12.0057C24.7741 11.4915 25.1179 11.0909 25.5582 10.804C26.0014 10.5142 26.5185 10.3693 27.1094 10.3693C27.4503 10.3693 27.7869 10.4261 28.1193 10.5398C28.4517 10.6534 28.7543 10.8381 29.027 11.0938C29.2997 11.3466 29.517 11.6818 29.679 12.0994C29.8409 12.517 29.9219 13.0312 29.9219 13.642V14.0682H24.8764V13.1989H28.8991C28.8991 12.8295 28.8253 12.5 28.6776 12.2102C28.5327 11.9205 28.3253 11.6918 28.0554 11.5241C27.7884 11.3565 27.473 11.2727 27.1094 11.2727C26.7088 11.2727 26.3622 11.3722 26.0696 11.571C25.7798 11.767 25.5568 12.0227 25.4006 12.3381C25.2443 12.6534 25.1662 12.9915 25.1662 13.3523V13.9318C25.1662 14.4261 25.2514 14.8452 25.4219 15.1889C25.5952 15.5298 25.8352 15.7898 26.142 15.9688C26.4489 16.1449 26.8054 16.233 27.2116 16.233C27.4759 16.233 27.7145 16.196 27.9276 16.1222C28.1435 16.0455 28.3295 15.9318 28.4858 15.7812C28.642 15.6278 28.7628 15.4375 28.848 15.2102L29.8196 15.483C29.7173 15.8125 29.5455 16.1023 29.304 16.3523C29.0625 16.5994 28.7642 16.7926 28.4091 16.9318C28.054 17.0682 27.6548 17.1364 27.2116 17.1364ZM33.9233 17.1364C33.3778 17.1364 32.8963 16.9986 32.4787 16.723C32.0611 16.4446 31.7344 16.0526 31.4986 15.5469C31.2628 15.0384 31.1449 14.4375 31.1449 13.7443C31.1449 13.0568 31.2628 12.4602 31.4986 11.9545C31.7344 11.4489 32.0625 11.0582 32.483 10.7827C32.9034 10.5071 33.3892 10.3693 33.9403 10.3693C34.3665 10.3693 34.7031 10.4403 34.9503 10.5824C35.2003 10.7216 35.3906 10.8807 35.5213 11.0597C35.6548 11.2358 35.7585 11.3807 35.8324 11.4943H35.9176V8.27273H36.9233V17H35.9517V15.9943H35.8324C35.7585 16.1136 35.6534 16.2642 35.517 16.446C35.3807 16.625 35.1861 16.7855 34.9332 16.9276C34.6804 17.0668 34.3438 17.1364 33.9233 17.1364ZM34.0597 16.233C34.4631 16.233 34.804 16.1278 35.0824 15.9176C35.3608 15.7045 35.5724 15.4105 35.7173 15.0355C35.8622 14.6577 35.9347 14.2216 35.9347 13.7273C35.9347 13.2386 35.8636 12.8111 35.7216 12.4446C35.5795 12.0753 35.3693 11.7884 35.0909 11.5838C34.8125 11.3764 34.4688 11.2727 34.0597 11.2727C33.6335 11.2727 33.2784 11.3821 32.9943 11.6009C32.7131 11.8168 32.5014 12.1108 32.3594 12.483C32.2202 12.8523 32.1506 13.267 32.1506 13.7273C32.1506 14.1932 32.2216 14.6165 32.3636 14.9972C32.5085 15.375 32.7216 15.6761 33.0028 15.9006C33.2869 16.1222 33.6392 16.233 34.0597 16.233ZM39.0412 17V8.27273H40.0469V11.4943H40.1321C40.206 11.3807 40.3082 11.2358 40.4389 11.0597C40.5724 10.8807 40.7628 10.7216 41.0099 10.5824C41.2599 10.4403 41.598 10.3693 42.0241 10.3693C42.5753 10.3693 43.0611 10.5071 43.4815 10.7827C43.902 11.0582 44.2301 11.4489 44.4659 11.9545C44.7017 12.4602 44.8196 13.0568 44.8196 13.7443C44.8196 14.4375 44.7017 15.0384 44.4659 15.5469C44.2301 16.0526 43.9034 16.4446 43.4858 16.723C43.0682 16.9986 42.5866 17.1364 42.0412 17.1364C41.6207 17.1364 41.2841 17.0668 41.0312 16.9276C40.7784 16.7855 40.5838 16.625 40.4474 16.446C40.3111 16.2642 40.206 16.1136 40.1321 15.9943H40.0128V17H39.0412ZM40.0298 13.7273C40.0298 14.2216 40.1023 14.6577 40.2472 15.0355C40.392 15.4105 40.6037 15.7045 40.8821 15.9176C41.1605 16.1278 41.5014 16.233 41.9048 16.233C42.3253 16.233 42.6761 16.1222 42.9574 15.9006C43.2415 15.6761 43.4545 15.375 43.5966 14.9972C43.7415 14.6165 43.8139 14.1932 43.8139 13.7273C43.8139 13.267 43.7429 12.8523 43.6009 12.483C43.4616 12.1108 43.25 11.8168 42.9659 11.6009C42.6847 11.3821 42.331 11.2727 41.9048 11.2727C41.4957 11.2727 41.152 11.3764 40.8736 11.5838C40.5952 11.7884 40.3849 12.0753 40.2429 12.4446C40.1009 12.8111 40.0298 13.2386 40.0298 13.7273ZM48.2841 17.1534C47.8693 17.1534 47.4929 17.0753 47.1548 16.919C46.8168 16.7599 46.5483 16.5312 46.3494 16.233C46.1506 15.9318 46.0511 15.5682 46.0511 15.142C46.0511 14.767 46.125 14.4631 46.2727 14.2301C46.4205 13.9943 46.6179 13.8097 46.8651 13.6761C47.1122 13.5426 47.3849 13.4432 47.6832 13.3778C47.9844 13.3097 48.2869 13.2557 48.5909 13.2159C48.9886 13.1648 49.3111 13.1264 49.5582 13.1009C49.8082 13.0724 49.9901 13.0256 50.1037 12.9602C50.2202 12.8949 50.2784 12.7812 50.2784 12.6193V12.5852C50.2784 12.1648 50.1634 11.8381 49.9332 11.6051C49.706 11.3722 49.3608 11.2557 48.8977 11.2557C48.4176 11.2557 48.0412 11.3608 47.7685 11.571C47.4957 11.7812 47.304 12.0057 47.1932 12.2443L46.2386 11.9034C46.4091 11.5057 46.6364 11.196 46.9205 10.9744C47.2074 10.75 47.5199 10.5937 47.858 10.5057C48.1989 10.4148 48.5341 10.3693 48.8636 10.3693C49.0739 10.3693 49.3153 10.3949 49.5881 10.446C49.8636 10.4943 50.1293 10.5952 50.3849 10.7486C50.6435 10.902 50.858 11.1335 51.0284 11.4432C51.1989 11.7528 51.2841 12.1676 51.2841 12.6875V17H50.2784V16.1136H50.2273C50.1591 16.2557 50.0455 16.4077 49.8864 16.5696C49.7273 16.7315 49.5156 16.8693 49.2514 16.983C48.9872 17.0966 48.6648 17.1534 48.2841 17.1534ZM48.4375 16.25C48.8352 16.25 49.1705 16.1719 49.4432 16.0156C49.7188 15.8594 49.9261 15.6577 50.0653 15.4105C50.2074 15.1634 50.2784 14.9034 50.2784 14.6307V13.7102C50.2358 13.7614 50.142 13.8082 49.9972 13.8509C49.8551 13.8906 49.6903 13.9261 49.5028 13.9574C49.3182 13.9858 49.1378 14.0114 48.9616 14.0341C48.7884 14.054 48.6477 14.071 48.5398 14.0852C48.2784 14.1193 48.0341 14.1747 47.8068 14.2514C47.5824 14.3253 47.4006 14.4375 47.2614 14.5881C47.125 14.7358 47.0568 14.9375 47.0568 15.1932C47.0568 15.5426 47.1861 15.8068 47.4446 15.9858C47.706 16.1619 48.0369 16.25 48.4375 16.25ZM55.7788 17.1364C55.1651 17.1364 54.6367 16.9915 54.1935 16.7017C53.7504 16.4119 53.4094 16.0128 53.1708 15.5043C52.9322 14.9957 52.8129 14.4148 52.8129 13.7614C52.8129 13.0966 52.935 12.5099 53.1793 12.0014C53.4265 11.4901 53.7702 11.0909 54.2106 10.804C54.6538 10.5142 55.1708 10.3693 55.7617 10.3693C56.2219 10.3693 56.6367 10.4545 57.006 10.625C57.3754 10.7955 57.6779 11.0341 57.9137 11.3409C58.1495 11.6477 58.2958 12.0057 58.3526 12.4148H57.3469C57.2702 12.1165 57.0998 11.8523 56.8356 11.6222C56.5742 11.3892 56.2219 11.2727 55.7788 11.2727C55.3867 11.2727 55.043 11.375 54.7475 11.5795C54.4549 11.7812 54.2262 12.0668 54.0614 12.4361C53.8995 12.8026 53.8185 13.233 53.8185 13.7273C53.8185 14.233 53.8981 14.6733 54.0572 15.0483C54.2191 15.4233 54.4464 15.7145 54.739 15.9219C55.0344 16.1293 55.381 16.233 55.7788 16.233C56.0401 16.233 56.2773 16.1875 56.4904 16.0966C56.7035 16.0057 56.8839 15.875 57.0316 15.7045C57.1793 15.5341 57.2844 15.3295 57.3469 15.0909H58.3526C58.2958 15.4773 58.1552 15.8253 57.9308 16.1349C57.7092 16.4418 57.4151 16.6861 57.0487 16.8679C56.685 17.0469 56.2617 17.1364 55.7788 17.1364ZM60.7603 14.6136L60.7433 13.3693H60.9478L63.8114 10.4545H65.0558L62.0046 13.5398H61.9194L60.7603 14.6136ZM59.8228 17V8.27273H60.8285V17H59.8228ZM63.9819 17L61.4251 13.7614L62.141 13.0625L65.2603 17H63.9819Z" fill="url(#paint0_linear_377_3222)"/>
<path d="M0 0V-1H-1V0H0ZM76 0H77V-1H76V0ZM0 1H76V-1H0V1ZM75 0V25H77V0H75ZM1 25V0H-1V25H1Z" fill="url(#paint1_linear_377_3222)" mask="url(#path-1-inside-1_377_3222)"/>
<defs>
<linearGradient id="paint0_linear_377_3222" x1="38" y1="5" x2="38" y2="20" gradientUnits="userSpaceOnUse">
<stop stop-color="#FF5344"/>
<stop offset="1" stop-color="#FC9C16"/>
</linearGradient>
<linearGradient id="paint1_linear_377_3222" x1="38" y1="0" x2="38" y2="25" gradientUnits="userSpaceOnUse">
<stop stop-color="#FF5344"/>
<stop offset="1" stop-color="#FC9C16"/>
</linearGradient>
</defs>
</svg>
