<svg width="58" height="58" viewBox="0 0 58 58" fill="none" xmlns="http://www.w3.org/2000/svg">
    <circle cx="29" cy="29" r="28.5" stroke="url(#paint0_linear_377_2693)" />
    <path d="M29 34.625C32.1073 34.625 34.625 32.1073 34.625 29V19.625C34.625 16.5177 32.1073 14 29 14C25.8927 14 23.375 16.5177 23.375 19.625V29C23.375 32.1073 25.8927 34.625 29 34.625Z" fill="url(#paint1_linear_377_2693)" />
    <path d="M38.375 27.125C37.3386 27.125 36.5 27.9636 36.5 29C36.5 33.1419 33.1419 36.5 29 36.5C24.8581 36.5 21.5 33.1419 21.5 29C21.5 27.9636 20.6614 27.125 19.625 27.125C18.5886 27.125 17.75 27.9636 17.75 29C17.75 34.572 21.8075 39.1859 27.125 40.0817V42.125C27.125 43.1614 27.9636 44 29 44C30.0364 44 30.875 43.1614 30.875 42.125V40.0817C36.1925 39.1859 40.25 34.572 40.25 29C40.25 27.9636 39.4114 27.125 38.375 27.125Z" fill="url(#paint2_linear_377_2693)" />
    <defs>
        <linearGradient id="paint0_linear_377_2693" x1="29" y1="0" x2="29" y2="58" gradientUnits="userSpaceOnUse">
            <stop stop-color="#FF5344" />
            <stop offset="1" stop-color="#FC9C16" />
        </linearGradient>
        <linearGradient id="paint1_linear_377_2693" x1="29" y1="14" x2="29" y2="34.625" gradientUnits="userSpaceOnUse">
            <stop stop-color="#FF5344" />
            <stop offset="1" stop-color="#FC9C16" />
        </linearGradient>
        <linearGradient id="paint2_linear_377_2693" x1="29" y1="27.125" x2="29" y2="44" gradientUnits="userSpaceOnUse">
            <stop stop-color="#FF5344" />
            <stop offset="1" stop-color="#FC9C16" />
        </linearGradient>
    </defs>
</svg>
