<svg width="16" height="16" viewBox="0 0 16 16" fill="none" xmlns="http://www.w3.org/2000/svg">
    <g clip-path="url(#clip0_442_5446)">
        <path d="M7.99981 10.9103C9.60706 10.9103 10.9093 9.60806 10.9093 8.00081V3.15167C10.9093 1.54442 9.60706 0.242188 7.99981 0.242188C6.39257 0.242188 5.09033 1.54442 5.09033 3.15167V8.00081C5.09033 9.60806 6.39257 10.9103 7.99981 10.9103Z" fill="#666666" />
        <path d="M12.8488 7.03125C12.3127 7.03125 11.8789 7.46501 11.8789 8.00108C11.8789 10.1434 10.142 11.8804 7.99963 11.8804C5.85728 11.8804 4.12032 10.1434 4.12032 8.00108C4.12032 7.46501 3.68656 7.03125 3.15049 7.03125C2.61442 7.03125 2.18066 7.46501 2.18066 8.00108C2.18066 10.8832 4.27937 13.2697 7.0298 13.733V14.7899C7.0298 15.3259 7.46356 15.7597 7.99963 15.7597C8.5357 15.7597 8.96946 15.3259 8.96946 14.7899V13.733C11.7199 13.2697 13.8186 10.8832 13.8186 8.00108C13.8186 7.46501 13.3848 7.03125 12.8488 7.03125Z" fill="#666666" />
    </g>
    <defs>
        <clipPath id="clip0_442_5446">
            <rect width="15.5172" height="15.5172" fill="white" transform="translate(0.241211 0.242188)" />
        </clipPath>
    </defs>
</svg>
