<svg width="46" height="46" viewBox="0 0 46 46" fill="none" xmlns="http://www.w3.org/2000/svg">
    <circle cx="23" cy="23" r="22.5" stroke="url(#paint0_linear_377_2995)" />
    <path d="M32.1071 12.8915C31.8548 12.641 31.5384 12.465 31.1927 12.3826C30.847 12.3003 30.4851 12.3149 30.1471 12.4248L10.6404 18.9315C10.2787 19.0461 9.95899 19.2654 9.72177 19.5616C9.48454 19.8578 9.34042 20.2177 9.30761 20.5958C9.27479 20.9739 9.35475 21.3531 9.53739 21.6858C9.72005 22.0185 9.99717 22.2895 10.3338 22.4649L18.4271 26.4649L22.4271 34.5849C22.5879 34.9026 22.8339 35.1695 23.1376 35.3555C23.4414 35.5415 23.791 35.6394 24.1471 35.6382H24.2804C24.6619 35.6101 25.026 35.4679 25.3256 35.2301C25.6252 34.9923 25.8464 34.6699 25.9604 34.3049L32.5604 14.8515C32.6783 14.5154 32.6983 14.1527 32.618 13.8057C32.5378 13.4588 32.3606 13.1417 32.1071 12.8915ZM11.4671 20.7715L28.4938 15.0915L19.0404 24.5449L11.4671 20.7715ZM24.2404 33.5315L20.4538 25.9582L29.9071 16.5048L24.2404 33.5315Z" fill="url(#paint1_linear_377_2995)" />
    <defs>
        <linearGradient id="paint0_linear_377_2995" x1="23" y1="0" x2="23" y2="46" gradientUnits="userSpaceOnUse">
            <stop stop-color="#FF5344" />
            <stop offset="1" stop-color="#FC9C16" />
        </linearGradient>
        <linearGradient id="paint1_linear_377_2995" x1="20.9834" y1="12.3301" x2="20.9834" y2="35.6382" gradientUnits="userSpaceOnUse">
            <stop stop-color="#FF5344" />
            <stop offset="1" stop-color="#FC9C16" />
        </linearGradient>
    </defs>
</svg>
